<?xml version="1.0" encoding="UTF-8"?>
<svg id="_Слой_1" data-name="Слой_1" xmlns="http://www.w3.org/2000/svg" xmlns:xlink="http://www.w3.org/1999/xlink" viewBox="0 0 256 256">
  <defs>
    <style>
      .cls-1 {
        fill: url(#_Безымянный_градиент_16);
      }

      .cls-2 {
        fill: url(#_Безымянный_градиент_510);
      }
    </style>
    <linearGradient id="_Безымянный_градиент_16" data-name="Безымянный градиент 16" x1="218.24" y1="218.27" x2="39.5" y2="39.53" gradientUnits="userSpaceOnUse">
      <stop offset="0" stop-color="#134e5e"/>
      <stop offset="1" stop-color="#71b280"/>
    </linearGradient>
    <linearGradient id="_Безымянный_градиент_510" data-name="Безымянный градиент 510" x1="217.72" y1="218.04" x2="55.24" y2="55.55" gradientUnits="userSpaceOnUse">
      <stop offset=".49" stop-color="#014854"/>
      <stop offset="1" stop-color="#54a873"/>
    </linearGradient>
  </defs>
  <path class="cls-1" d="M255.26,128.9c0,3.31-.13,6.58-.38,9.82-.32,4.21-.85,8.37-1.57,12.45-.85,4.72-1.95,9.35-3.29,13.87-1.12,3.73-2.4,7.4-3.84,10.98-1.68,4.2-3.59,8.28-5.7,12.24-1.88,3.53-3.93,6.96-6.12,10.28-2.56,3.87-5.33,7.6-8.3,11.16-5.32,6.39-11.26,12.25-17.72,17.49-3.62,2.92-7.4,5.66-11.34,8.19,0-.01-.01,0-.01,0-3.35,2.14-6.8,4.14-10.36,5.97-4,2.06-8.13,3.91-12.36,5.54-3.62,1.39-7.31,2.62-11.08,3.68-4.57,1.29-9.24,2.33-14.01,3.09-4.12.67-8.31,1.14-12.56,1.39-2.56.16-5.15.24-7.75.24-2.73,0-5.43-.09-8.12-.26h-.01c-4.93-.31-9.79-.91-14.56-1.77-6.25-1.13-12.33-2.72-18.22-4.74-6.18-2.11-12.16-4.7-17.87-7.7-7.85-4.13-15.21-9.07-21.98-14.7C20.23,202.94,2.48,167.99,2.48,128.9,2.48,59.1,59.07,2.51,128.87,2.51c40.45,0,76.47,19.01,99.6,48.58,5.29,6.76,9.91,14.08,13.75,21.85,2.79,5.62,5.16,11.48,7.09,17.54,1.87,5.85,3.32,11.88,4.31,18.06.77,4.73,1.28,9.55,1.51,14.45.08,1.96.13,3.93.13,5.91Z"/>
  <path class="cls-2" d="M224.64,185.64c-16-16-37.37-19.71-48.63-8.44-5.73,5.72-7.76,14.18-5.73,23.82,1.83,8.7,6.86,17.51,14.16,24.81,3.93,3.94,8.19,7.13,12.55,9.55,0,0,.01-.01.01,0,3.94-2.53,7.72-5.27,11.34-8.19-5.14-1.8-10.57-5.21-15.31-9.95-5.57-5.57-9.53-12.4-10.87-18.73-.67-3.17-1.24-9.05,2.43-12.72,2.03-2.03,4.93-2.99,8.28-2.99,6.95,0,15.88,4.13,23.18,11.43,4.79,4.79,8.22,10.29,10.01,15.47,2.97-3.56,5.74-7.29,8.3-11.16-2.42-4.48-5.68-8.86-9.72-12.9ZM224.64,185.64c-16-16-37.37-19.71-48.63-8.44-5.73,5.72-7.76,14.18-5.73,23.82,1.83,8.7,6.86,17.51,14.16,24.81,3.93,3.94,8.19,7.13,12.55,9.55,0,0,.01-.01.01,0,3.94-2.53,7.72-5.27,11.34-8.19-5.14-1.8-10.57-5.21-15.31-9.95-5.57-5.57-9.53-12.4-10.87-18.73-.67-3.17-1.24-9.05,2.43-12.72,2.03-2.03,4.93-2.99,8.28-2.99,6.95,0,15.88,4.13,23.18,11.43,4.79,4.79,8.22,10.29,10.01,15.47,2.97-3.56,5.74-7.29,8.3-11.16-2.42-4.48-5.68-8.86-9.72-12.9ZM240.44,169.83c-13.78-13.78-30.33-23.26-46.58-26.68-17.19-3.63-32.15-.14-42.09,9.81-9.95,9.95-13.44,24.9-9.82,42.09,3.43,16.26,12.91,32.8,26.69,46.58,1.83,1.83,3.71,3.58,5.63,5.26,4.23-1.63,8.36-3.48,12.36-5.54-3.24-2.52-6.39-5.29-9.4-8.3-12.14-12.14-20.45-26.52-23.39-40.5-2.75-13.05-.44-24.05,6.51-31,5.04-5.04,12.22-7.64,20.76-7.64,3.23,0,6.66.37,10.24,1.12,13.98,2.95,28.37,11.26,40.5,23.39,3.15,3.15,6.03,6.44,8.63,9.84,2.11-3.96,4.02-8.04,5.7-12.24-1.81-2.12-3.73-4.18-5.74-6.19ZM176.01,177.2c-5.73,5.72-7.76,14.18-5.73,23.82,1.83,8.7,6.86,17.51,14.16,24.81,3.93,3.94,8.19,7.13,12.55,9.55,0,0,.01-.01.01,0,3.94-2.53,7.72-5.27,11.34-8.19-5.14-1.8-10.57-5.21-15.31-9.95-5.57-5.57-9.53-12.4-10.87-18.73-.67-3.17-1.24-9.05,2.43-12.72,2.03-2.03,4.93-2.99,8.28-2.99,6.95,0,15.88,4.13,23.18,11.43,4.79,4.79,8.22,10.29,10.01,15.47,2.97-3.56,5.74-7.29,8.3-11.16-2.42-4.48-5.68-8.86-9.72-12.9-16-16-37.37-19.71-48.63-8.44ZM240.44,169.83c-13.78-13.78-30.33-23.26-46.58-26.68-17.19-3.63-32.15-.14-42.09,9.81-9.95,9.95-13.44,24.9-9.82,42.09,3.43,16.26,12.91,32.8,26.69,46.58,1.83,1.83,3.71,3.58,5.63,5.26,4.23-1.63,8.36-3.48,12.36-5.54-3.24-2.52-6.39-5.29-9.4-8.3-12.14-12.14-20.45-26.52-23.39-40.5-2.75-13.05-.44-24.05,6.51-31,5.04-5.04,12.22-7.64,20.76-7.64,3.23,0,6.66.37,10.24,1.12,13.98,2.95,28.37,11.26,40.5,23.39,3.15,3.15,6.03,6.44,8.63,9.84,2.11-3.96,4.02-8.04,5.7-12.24-1.81-2.12-3.73-4.18-5.74-6.19ZM176.01,177.2c-5.73,5.72-7.76,14.18-5.73,23.82,1.83,8.7,6.86,17.51,14.16,24.81,3.93,3.94,8.19,7.13,12.55,9.55,0,0,.01-.01.01,0,3.94-2.53,7.72-5.27,11.34-8.19-5.14-1.8-10.57-5.21-15.31-9.95-5.57-5.57-9.53-12.4-10.87-18.73-.67-3.17-1.24-9.05,2.43-12.72,2.03-2.03,4.93-2.99,8.28-2.99,6.95,0,15.88,4.13,23.18,11.43,4.79,4.79,8.22,10.29,10.01,15.47,2.97-3.56,5.74-7.29,8.3-11.16-2.42-4.48-5.68-8.86-9.72-12.9-16-16-37.37-19.71-48.63-8.44ZM187.89,114.83c-24.75-5.22-46.19-.29-60.37,13.89s-19.1,35.61-13.89,60.36c4.71,22.36,17.26,45.11,35.55,64.58,4.77-.76,9.44-1.8,14.01-3.09-.59-.56-1.18-1.14-1.76-1.72-18.62-18.62-31.37-40.73-35.91-62.27-4.34-20.6-.58-38.1,10.59-49.27,8.42-8.42,20.12-12.43,33.41-12.43,12.12,0,25.56,3.34,39.02,9.73,13.46,6.39,26.93,15.83,39.12,28.01.8.8,1.59,1.6,2.36,2.42,1.34-4.52,2.44-9.15,3.29-13.87-28.9-23.54-47.3-32.53-65.42-36.34ZM193.86,143.15c-17.19-3.63-32.15-.14-42.09,9.81-9.95,9.95-13.44,24.9-9.82,42.09,3.43,16.26,12.91,32.8,26.69,46.58,1.83,1.83,3.71,3.58,5.63,5.26,4.23-1.63,8.36-3.48,12.36-5.54-3.24-2.52-6.39-5.29-9.4-8.3-12.14-12.14-20.45-26.52-23.39-40.5-2.75-13.05-.44-24.05,6.51-31,5.04-5.04,12.22-7.64,20.76-7.64,3.23,0,6.66.37,10.24,1.12,13.98,2.95,28.37,11.26,40.5,23.39,3.15,3.15,6.03,6.44,8.63,9.84,2.11-3.96,4.02-8.04,5.7-12.24-1.81-2.12-3.73-4.18-5.74-6.19-13.78-13.78-30.33-23.26-46.58-26.68ZM176.01,177.2c-5.73,5.72-7.76,14.18-5.73,23.82,1.83,8.7,6.86,17.51,14.16,24.81,3.93,3.94,8.19,7.13,12.55,9.55,0,0,.01-.01.01,0,3.94-2.53,7.72-5.27,11.34-8.19-5.14-1.8-10.57-5.21-15.31-9.95-5.57-5.57-9.53-12.4-10.87-18.73-.67-3.17-1.24-9.05,2.43-12.72,2.03-2.03,4.93-2.99,8.28-2.99,6.95,0,15.88,4.13,23.18,11.43,4.79,4.79,8.22,10.29,10.01,15.47,2.97-3.56,5.74-7.29,8.3-11.16-2.42-4.48-5.68-8.86-9.72-12.9-16-16-37.37-19.71-48.63-8.44ZM187.89,114.83c-24.75-5.22-46.19-.29-60.37,13.89s-19.1,35.61-13.89,60.36c4.71,22.36,17.26,45.11,35.55,64.58,4.77-.76,9.44-1.8,14.01-3.09-.59-.56-1.18-1.14-1.76-1.72-18.62-18.62-31.37-40.73-35.91-62.27-4.34-20.6-.58-38.1,10.59-49.27,8.42-8.42,20.12-12.43,33.41-12.43,12.12,0,25.56,3.34,39.02,9.73,13.46,6.39,26.93,15.83,39.12,28.01.8.8,1.59,1.6,2.36,2.42,1.34-4.52,2.44-9.15,3.29-13.87-28.9-23.54-47.3-32.53-65.42-36.34ZM193.86,143.15c-17.19-3.63-32.15-.14-42.09,9.81-9.95,9.95-13.44,24.9-9.82,42.09,3.43,16.26,12.91,32.8,26.69,46.58,1.83,1.83,3.71,3.58,5.63,5.26,4.23-1.63,8.36-3.48,12.36-5.54-3.24-2.52-6.39-5.29-9.4-8.3-12.14-12.14-20.45-26.52-23.39-40.5-2.75-13.05-.44-24.05,6.51-31,5.04-5.04,12.22-7.64,20.76-7.64,3.23,0,6.66.37,10.24,1.12,13.98,2.95,28.37,11.26,40.5,23.39,3.15,3.15,6.03,6.44,8.63,9.84,2.11-3.96,4.02-8.04,5.7-12.24-1.81-2.12-3.73-4.18-5.74-6.19-13.78-13.78-30.33-23.26-46.58-26.68ZM176.01,177.2c-5.73,5.72-7.76,14.18-5.73,23.82,1.83,8.7,6.86,17.51,14.16,24.81,3.93,3.94,8.19,7.13,12.55,9.55,0,0,.01-.01.01,0,3.94-2.53,7.72-5.27,11.34-8.19-5.14-1.8-10.57-5.21-15.31-9.95-5.57-5.57-9.53-12.4-10.87-18.73-.67-3.17-1.24-9.05,2.43-12.72,2.03-2.03,4.93-2.99,8.28-2.99,6.95,0,15.88,4.13,23.18,11.43,4.79,4.79,8.22,10.29,10.01,15.47,2.97-3.56,5.74-7.29,8.3-11.16-2.42-4.48-5.68-8.86-9.72-12.9-16-16-37.37-19.71-48.63-8.44ZM255.13,122.99c-22.82-18.5-48.21-31.22-73.21-36.49-32.31-6.8-60.24-.42-78.64,17.98-18.4,18.4-24.78,46.32-17.97,78.64,5.17,24.52,17.52,49.43,35.43,71.91h.01c2.69.17,5.39.26,8.12.26s5.19-.08,7.75-.24c-43.78-49.71-55.24-111.5-24.75-141.98,11.59-11.59,27.69-17.12,45.93-17.12,30.1,0,66.02,15.05,97.08,42.77.25-3.24.38-6.51.38-9.82,0-1.98-.05-3.95-.13-5.91ZM127.52,128.72c-14.17,14.17-19.1,35.61-13.89,60.36,4.71,22.36,17.26,45.11,35.55,64.58,4.77-.76,9.44-1.8,14.01-3.09-.59-.56-1.18-1.14-1.76-1.72-18.62-18.62-31.37-40.73-35.91-62.27-4.34-20.6-.58-38.1,10.59-49.27,8.42-8.42,20.12-12.43,33.41-12.43,12.12,0,25.56,3.34,39.02,9.73,13.46,6.39,26.93,15.83,39.12,28.01.8.8,1.59,1.6,2.36,2.42,1.34-4.52,2.44-9.15,3.29-13.87-28.9-23.54-47.3-32.53-65.42-36.34-24.75-5.22-46.19-.29-60.37,13.89ZM193.86,143.15c-17.19-3.63-32.15-.14-42.09,9.81-9.95,9.95-13.44,24.9-9.82,42.09,3.43,16.26,12.91,32.8,26.69,46.58,1.83,1.83,3.71,3.58,5.63,5.26,4.23-1.63,8.36-3.48,12.36-5.54-3.24-2.52-6.39-5.29-9.4-8.3-12.14-12.14-20.45-26.52-23.39-40.5-2.75-13.05-.44-24.05,6.51-31,5.04-5.04,12.22-7.64,20.76-7.64,3.23,0,6.66.37,10.24,1.12,13.98,2.95,28.37,11.26,40.5,23.39,3.15,3.15,6.03,6.44,8.63,9.84,2.11-3.96,4.02-8.04,5.7-12.24-1.81-2.12-3.73-4.18-5.74-6.19-13.78-13.78-30.33-23.26-46.58-26.68ZM176.01,177.2c-5.73,5.72-7.76,14.18-5.73,23.82,1.83,8.7,6.86,17.51,14.16,24.81,3.93,3.94,8.19,7.13,12.55,9.55,0,0,.01-.01.01,0,3.94-2.53,7.72-5.27,11.34-8.19-5.14-1.8-10.57-5.21-15.31-9.95-5.57-5.57-9.53-12.4-10.87-18.73-.67-3.17-1.24-9.05,2.43-12.72,2.03-2.03,4.93-2.99,8.28-2.99,6.95,0,15.88,4.13,23.18,11.43,4.79,4.79,8.22,10.29,10.01,15.47,2.97-3.56,5.74-7.29,8.3-11.16-2.42-4.48-5.68-8.86-9.72-12.9-16-16-37.37-19.71-48.63-8.44ZM255.13,122.99c-22.82-18.5-48.21-31.22-73.21-36.49-32.31-6.8-60.24-.42-78.64,17.98-18.4,18.4-24.78,46.32-17.97,78.64,5.17,24.52,17.52,49.43,35.43,71.91h.01c2.69.17,5.39.26,8.12.26s5.19-.08,7.75-.24c-43.78-49.71-55.24-111.5-24.75-141.98,11.59-11.59,27.69-17.12,45.93-17.12,30.1,0,66.02,15.05,97.08,42.77.25-3.24.38-6.51.38-9.82,0-1.98-.05-3.95-.13-5.91ZM127.52,128.72c-14.17,14.17-19.1,35.61-13.89,60.36,4.71,22.36,17.26,45.11,35.55,64.58,4.77-.76,9.44-1.8,14.01-3.09-.59-.56-1.18-1.14-1.76-1.72-18.62-18.62-31.37-40.73-35.91-62.27-4.34-20.6-.58-38.1,10.59-49.27,8.42-8.42,20.12-12.43,33.41-12.43,12.12,0,25.56,3.34,39.02,9.73,13.46,6.39,26.93,15.83,39.12,28.01.8.8,1.59,1.6,2.36,2.42,1.34-4.52,2.44-9.15,3.29-13.87-28.9-23.54-47.3-32.53-65.42-36.34-24.75-5.22-46.19-.29-60.37,13.89ZM193.86,143.15c-17.19-3.63-32.15-.14-42.09,9.81-9.95,9.95-13.44,24.9-9.82,42.09,3.43,16.26,12.91,32.8,26.69,46.58,1.83,1.83,3.71,3.58,5.63,5.26,4.23-1.63,8.36-3.48,12.36-5.54-3.24-2.52-6.39-5.29-9.4-8.3-12.14-12.14-20.45-26.52-23.39-40.5-2.75-13.05-.44-24.05,6.51-31,5.04-5.04,12.22-7.64,20.76-7.64,3.23,0,6.66.37,10.24,1.12,13.98,2.95,28.37,11.26,40.5,23.39,3.15,3.15,6.03,6.44,8.63,9.84,2.11-3.96,4.02-8.04,5.7-12.24-1.81-2.12-3.73-4.18-5.74-6.19-13.78-13.78-30.33-23.26-46.58-26.68ZM176.01,177.2c-5.73,5.72-7.76,14.18-5.73,23.82,1.83,8.7,6.86,17.51,14.16,24.81,3.93,3.94,8.19,7.13,12.55,9.55,0,0,.01-.01.01,0,3.94-2.53,7.72-5.27,11.34-8.19-5.14-1.8-10.57-5.21-15.31-9.95-5.57-5.57-9.53-12.4-10.87-18.73-.67-3.17-1.24-9.05,2.43-12.72,2.03-2.03,4.93-2.99,8.28-2.99,6.95,0,15.88,4.13,23.18,11.43,4.79,4.79,8.22,10.29,10.01,15.47,2.97-3.56,5.74-7.29,8.3-11.16-2.42-4.48-5.68-8.86-9.72-12.9-16-16-37.37-19.71-48.63-8.44ZM255.13,122.99c-22.82-18.5-48.21-31.22-73.21-36.49-32.31-6.8-60.24-.42-78.64,17.98-18.4,18.4-24.78,46.32-17.97,78.64,5.17,24.52,17.52,49.43,35.43,71.91h.01c2.69.17,5.39.26,8.12.26s5.19-.08,7.75-.24c-43.78-49.71-55.24-111.5-24.75-141.98,11.59-11.59,27.69-17.12,45.93-17.12,30.1,0,66.02,15.05,97.08,42.77.25-3.24.38-6.51.38-9.82,0-1.98-.05-3.95-.13-5.91ZM127.52,128.72c-14.17,14.17-19.1,35.61-13.89,60.36,4.71,22.36,17.26,45.11,35.55,64.58,4.77-.76,9.44-1.8,14.01-3.09-.59-.56-1.18-1.14-1.76-1.72-18.62-18.62-31.37-40.73-35.91-62.27-4.34-20.6-.58-38.1,10.59-49.27,8.42-8.42,20.12-12.43,33.41-12.43,12.12,0,25.56,3.34,39.02,9.73,13.46,6.39,26.93,15.83,39.12,28.01.8.8,1.59,1.6,2.36,2.42,1.34-4.52,2.44-9.15,3.29-13.87-28.9-23.54-47.3-32.53-65.42-36.34-24.75-5.22-46.19-.29-60.37,13.89ZM87.63,88.82c14.36-14.35,34.52-21.77,58.31-21.77,8.72,0,17.93,1,27.51,3.02,27.16,5.72,54.82,19.08,80.17,38.47-.99-6.18-2.44-12.21-4.31-18.06-23.52-15.96-48.6-27.09-73.36-32.3-39.87-8.4-74.28-.57-96.91,22.06s-30.45,57.04-22.05,96.91c5.07,24.06,15.72,48.42,30.97,71.37,5.89,2.02,11.97,3.61,18.22,4.74-44.85-59.72-54.17-128.81-18.55-164.44ZM193.86,143.15c-17.19-3.63-32.15-.14-42.09,9.81-9.95,9.95-13.44,24.9-9.82,42.09,3.43,16.26,12.91,32.8,26.69,46.58,1.83,1.83,3.71,3.58,5.63,5.26,4.23-1.63,8.36-3.48,12.36-5.54-3.24-2.52-6.39-5.29-9.4-8.3-12.14-12.14-20.45-26.52-23.39-40.5-2.75-13.05-.44-24.05,6.51-31,5.04-5.04,12.22-7.64,20.76-7.64,3.23,0,6.66.37,10.24,1.12,13.98,2.95,28.37,11.26,40.5,23.39,3.15,3.15,6.03,6.44,8.63,9.84,2.11-3.96,4.02-8.04,5.7-12.24-1.81-2.12-3.73-4.18-5.74-6.19-13.78-13.78-30.33-23.26-46.58-26.68ZM176.01,177.2c-5.73,5.72-7.76,14.18-5.73,23.82,1.83,8.7,6.86,17.51,14.16,24.81,3.93,3.94,8.19,7.13,12.55,9.55,0,0,.01-.01.01,0,3.94-2.53,7.72-5.27,11.34-8.19-5.14-1.8-10.57-5.21-15.31-9.95-5.57-5.57-9.53-12.4-10.87-18.73-.67-3.17-1.24-9.05,2.43-12.72,2.03-2.03,4.93-2.99,8.28-2.99,6.95,0,15.88,4.13,23.18,11.43,4.79,4.79,8.22,10.29,10.01,15.47,2.97-3.56,5.74-7.29,8.3-11.16-2.42-4.48-5.68-8.86-9.72-12.9-16-16-37.37-19.71-48.63-8.44ZM255.13,122.99c-22.82-18.5-48.21-31.22-73.21-36.49-32.31-6.8-60.24-.42-78.64,17.98-18.4,18.4-24.78,46.32-17.97,78.64,5.17,24.52,17.52,49.43,35.43,71.91h.01c2.69.17,5.39.26,8.12.26s5.19-.08,7.75-.24c-43.78-49.71-55.24-111.5-24.75-141.98,11.59-11.59,27.69-17.12,45.93-17.12,30.1,0,66.02,15.05,97.08,42.77.25-3.24.38-6.51.38-9.82,0-1.98-.05-3.95-.13-5.91ZM127.52,128.72c-14.17,14.17-19.1,35.61-13.89,60.36,4.71,22.36,17.26,45.11,35.55,64.58,4.77-.76,9.44-1.8,14.01-3.09-.59-.56-1.18-1.14-1.76-1.72-18.62-18.62-31.37-40.73-35.91-62.27-4.34-20.6-.58-38.1,10.59-49.27,8.42-8.42,20.12-12.43,33.41-12.43,12.12,0,25.56,3.34,39.02,9.73,13.46,6.39,26.93,15.83,39.12,28.01.8.8,1.59,1.6,2.36,2.42,1.34-4.52,2.44-9.15,3.29-13.87-28.9-23.54-47.3-32.53-65.42-36.34-24.75-5.22-46.19-.29-60.37,13.89ZM87.63,88.82c14.36-14.35,34.52-21.77,58.31-21.77,8.72,0,17.93,1,27.51,3.02,27.16,5.72,54.82,19.08,80.17,38.47-.99-6.18-2.44-12.21-4.31-18.06-23.52-15.96-48.6-27.09-73.36-32.3-39.87-8.4-74.28-.57-96.91,22.06s-30.45,57.04-22.05,96.91c5.07,24.06,15.72,48.42,30.97,71.37,5.89,2.02,11.97,3.61,18.22,4.74-44.85-59.72-54.17-128.81-18.55-164.44ZM193.86,143.15c-17.19-3.63-32.15-.14-42.09,9.81-9.95,9.95-13.44,24.9-9.82,42.09,3.43,16.26,12.91,32.8,26.69,46.58,1.83,1.83,3.71,3.58,5.63,5.26,4.23-1.63,8.36-3.48,12.36-5.54-3.24-2.52-6.39-5.29-9.4-8.3-12.14-12.14-20.45-26.52-23.39-40.5-2.75-13.05-.44-24.05,6.51-31,5.04-5.04,12.22-7.64,20.76-7.64,3.23,0,6.66.37,10.24,1.12,13.98,2.95,28.37,11.26,40.5,23.39,3.15,3.15,6.03,6.44,8.63,9.84,2.11-3.96,4.02-8.04,5.7-12.24-1.81-2.12-3.73-4.18-5.74-6.19-13.78-13.78-30.33-23.26-46.58-26.68ZM176.01,177.2c-5.73,5.72-7.76,14.18-5.73,23.82,1.83,8.7,6.86,17.51,14.16,24.81,3.93,3.94,8.19,7.13,12.55,9.55,0,0,.01-.01.01,0,3.94-2.53,7.72-5.27,11.34-8.19-5.14-1.8-10.57-5.21-15.31-9.95-5.57-5.57-9.53-12.4-10.87-18.73-.67-3.17-1.24-9.05,2.43-12.72,2.03-2.03,4.93-2.99,8.28-2.99,6.95,0,15.88,4.13,23.18,11.43,4.79,4.79,8.22,10.29,10.01,15.47,2.97-3.56,5.74-7.29,8.3-11.16-2.42-4.48-5.68-8.86-9.72-12.9-16-16-37.37-19.71-48.63-8.44ZM255.13,122.99c-22.82-18.5-48.21-31.22-73.21-36.49-32.31-6.8-60.24-.42-78.64,17.98-18.4,18.4-24.78,46.32-17.97,78.64,5.17,24.52,17.52,49.43,35.43,71.91h.01c2.69.17,5.39.26,8.12.26s5.19-.08,7.75-.24c-43.78-49.71-55.24-111.5-24.75-141.98,11.59-11.59,27.69-17.12,45.93-17.12,30.1,0,66.02,15.05,97.08,42.77.25-3.24.38-6.51.38-9.82,0-1.98-.05-3.95-.13-5.91ZM127.52,128.72c-14.17,14.17-19.1,35.61-13.89,60.36,4.71,22.36,17.26,45.11,35.55,64.58,4.77-.76,9.44-1.8,14.01-3.09-.59-.56-1.18-1.14-1.76-1.72-18.62-18.62-31.37-40.73-35.91-62.27-4.34-20.6-.58-38.1,10.59-49.27,8.42-8.42,20.12-12.43,33.41-12.43,12.12,0,25.56,3.34,39.02,9.73,13.46,6.39,26.93,15.83,39.12,28.01.8.8,1.59,1.6,2.36,2.42,1.34-4.52,2.44-9.15,3.29-13.87-28.9-23.54-47.3-32.53-65.42-36.34-24.75-5.22-46.19-.29-60.37,13.89ZM87.63,88.82c14.36-14.35,34.52-21.77,58.31-21.77,8.72,0,17.93,1,27.51,3.02,27.16,5.72,54.82,19.08,80.17,38.47-.99-6.18-2.44-12.21-4.31-18.06-23.52-15.96-48.6-27.09-73.36-32.3-39.87-8.4-74.28-.57-96.91,22.06s-30.45,57.04-22.05,96.91c5.07,24.06,15.72,48.42,30.97,71.37,5.89,2.02,11.97,3.61,18.22,4.74-44.85-59.72-54.17-128.81-18.55-164.44ZM193.86,143.15c-17.19-3.63-32.15-.14-42.09,9.81-9.95,9.95-13.44,24.9-9.82,42.09,3.43,16.26,12.91,32.8,26.69,46.58,1.83,1.83,3.71,3.58,5.63,5.26,4.23-1.63,8.36-3.48,12.36-5.54-3.24-2.52-6.39-5.29-9.4-8.3-12.14-12.14-20.45-26.52-23.39-40.5-2.75-13.05-.44-24.05,6.51-31,5.04-5.04,12.22-7.64,20.76-7.64,3.23,0,6.66.37,10.24,1.12,13.98,2.95,28.37,11.26,40.5,23.39,3.15,3.15,6.03,6.44,8.63,9.84,2.11-3.96,4.02-8.04,5.7-12.24-1.81-2.12-3.73-4.18-5.74-6.19-13.78-13.78-30.33-23.26-46.58-26.68ZM63.39,64.58c17.93-17.93,42.82-26.49,70.98-26.49,33.43,0,71.45,12.07,107.85,34.85-3.84-7.77-8.46-15.09-13.75-21.85-19.24-9.91-38.94-17.11-58.48-21.23-47.43-9.99-88.34-.71-115.19,26.13-26.85,26.85-36.13,67.76-26.13,115.19,3.86,18.34,10.44,36.83,19.44,54.94,6.77,5.63,14.13,10.57,21.98,14.7-14.34-23.47-24.44-47.97-29.54-72.14-9.12-43.28-1.01-80.25,22.84-104.1ZM176.01,177.2c-5.73,5.72-7.76,14.18-5.73,23.82,1.83,8.7,6.86,17.51,14.16,24.81,3.93,3.94,8.19,7.13,12.55,9.55,0,0,.01-.01.01,0,3.94-2.53,7.72-5.27,11.34-8.19-5.14-1.8-10.57-5.21-15.31-9.95-5.57-5.57-9.53-12.4-10.87-18.73-.67-3.17-1.24-9.05,2.43-12.72,2.03-2.03,4.93-2.99,8.28-2.99,6.95,0,15.88,4.13,23.18,11.43,4.79,4.79,8.22,10.29,10.01,15.47,2.97-3.56,5.74-7.29,8.3-11.16-2.42-4.48-5.68-8.86-9.72-12.9-16-16-37.37-19.71-48.63-8.44Z"/>
</svg>